# xmcd
#
# Track frame offsets:
#	150
#	8002
#	25449
#	39335
#
# Disc length: 692 seconds
#
# Revision: 0
# Processed by: cddbd v1.5.1PL0 Copyright (c) Steve Scherf et al.
# Submitted via: audiograbber 1.83.01
#
DISCID=2302b204
DTITLE=Sarah Marie Newell - Demo
DYEAR=2005
DGENRE=Acoustic
TTITLE0=Lisp
TTITLE1=Sleep Is A Rapist
TTITLE2=Samson
TTITLE3=Soliloquoy
EXTD=
EXTT0=
EXTT1=
EXTT2=
EXTT3=
PLAYORDER=
